<svg width="16" height="16" viewBox="0 0 16 16" fill="none" xmlns="http://www.w3.org/2000/svg">
<rect width="16" height="16" rx="8" fill="#FEF8E7"/>
<path d="M2 8.60792C2 9.75174 2.77126 10.4707 3.83012 10.4707C4.8759 10.4707 5.66023 9.75174 5.66023 8.60792V6.07843H4.77785V8.67328C4.77785 9.30074 4.39876 9.6537 3.83012 9.6537C3.27455 9.6537 2.88238 9.30074 2.88238 8.67328V6.07843H2V8.60792Z" fill="#F4BC00"/>
<path d="M6.28321 9.51644C6.61655 10.0982 7.21787 10.4707 7.94992 10.4707C8.81269 10.4707 9.45976 9.96743 9.45976 9.17656C9.45976 8.59484 9.11989 8.23536 8.39438 7.91509L7.90417 7.69939C7.53814 7.53599 7.40088 7.43141 7.40088 7.20265C7.40088 6.93467 7.62965 6.78434 7.93685 6.78434C8.26365 6.78434 8.53817 6.94774 8.7604 7.28108L9.36172 6.81702C9.09374 6.32027 8.597 6 7.93685 6C7.11983 6 6.50543 6.48367 6.50543 7.22226C6.50543 7.79744 6.89107 8.16999 7.55122 8.46412L8.01528 8.67328C8.42706 8.86282 8.56432 8.95433 8.56432 9.20924C8.56432 9.50336 8.33555 9.68638 7.94992 9.68638C7.47932 9.68638 7.17212 9.44454 6.89107 9.05891L6.28321 9.51644Z" fill="#F4BC00"/>
<path d="M10.2349 10.3923H11.6467C13.0128 10.4119 14.0193 9.47068 13.9997 8.22228C14.0193 6.94774 13.0128 6.06536 11.6467 6.07843H10.2349V10.3923ZM11.1173 9.59487V6.87584H11.6402C12.5226 6.87584 13.0912 7.38566 13.0912 8.22228C13.0912 9.05237 12.5095 9.59487 11.6402 9.59487H11.1173Z" fill="#F4BC00"/>
</svg>
